<svg width="32" height="32" viewBox="0 0 32 32" fill="none" xmlns="http://www.w3.org/2000/svg">
<mask id="mask0_11_1103" style="mask-type:luminance" maskUnits="userSpaceOnUse" x="1" y="1" width="29" height="30">
<path d="M29.6667 13.3333H16V19H23.8667C23.1334 22.6 20.0667 24.6666 16 24.6666C11.2 24.6666 7.33337 20.8 7.33337 16C7.33337 11.2 11.2 7.33331 16 7.33331C18.0667 7.33331 19.9334 8.06665 21.4 9.26665L25.6667 4.99998C23.0667 2.73331 19.7334 1.33331 16 1.33331C7.86671 1.33331 1.33337 7.86665 1.33337 16C1.33337 24.1333 7.86671 30.6666 16 30.6666C23.3334 30.6666 30 25.3333 30 16C30 15.1333 29.8667 14.2 29.6667 13.3333Z" fill="white"/>
</mask>
<g mask="url(#mask0_11_1103)">
<path d="M0 24.6666V7.33331L11.3333 16L0 24.6666Z" fill="#FBBC05"/>
</g>
<mask id="mask1_11_1103" style="mask-type:luminance" maskUnits="userSpaceOnUse" x="1" y="1" width="29" height="30">
<path d="M29.6667 13.3333H16V19H23.8667C23.1334 22.6 20.0667 24.6666 16 24.6666C11.2 24.6666 7.33337 20.8 7.33337 16C7.33337 11.2 11.2 7.33331 16 7.33331C18.0667 7.33331 19.9334 8.06665 21.4 9.26665L25.6667 4.99998C23.0667 2.73331 19.7334 1.33331 16 1.33331C7.86671 1.33331 1.33337 7.86665 1.33337 16C1.33337 24.1333 7.86671 30.6666 16 30.6666C23.3334 30.6666 30 25.3333 30 16C30 15.1333 29.8667 14.2 29.6667 13.3333Z" fill="white"/>
</mask>
<g mask="url(#mask1_11_1103)">
<path d="M0 7.33333L11.3333 16L16 11.9333L32 9.33333V0H0V7.33333Z" fill="#EA4335"/>
</g>
<mask id="mask2_11_1103" style="mask-type:luminance" maskUnits="userSpaceOnUse" x="1" y="1" width="29" height="30">
<path d="M29.6667 13.3333H16V19H23.8667C23.1334 22.6 20.0667 24.6666 16 24.6666C11.2 24.6666 7.33337 20.8 7.33337 16C7.33337 11.2 11.2 7.33331 16 7.33331C18.0667 7.33331 19.9334 8.06665 21.4 9.26665L25.6667 4.99998C23.0667 2.73331 19.7334 1.33331 16 1.33331C7.86671 1.33331 1.33337 7.86665 1.33337 16C1.33337 24.1333 7.86671 30.6666 16 30.6666C23.3334 30.6666 30 25.3333 30 16C30 15.1333 29.8667 14.2 29.6667 13.3333Z" fill="white"/>
</mask>
<g mask="url(#mask2_11_1103)">
<path d="M0 24.6667L20 9.33333L25.2667 10L32 0V32H0V24.6667Z" fill="#34A853"/>
</g>
<mask id="mask3_11_1103" style="mask-type:luminance" maskUnits="userSpaceOnUse" x="1" y="1" width="29" height="30">
<path d="M29.6667 13.3333H16V19H23.8667C23.1334 22.6 20.0667 24.6666 16 24.6666C11.2 24.6666 7.33337 20.8 7.33337 16C7.33337 11.2 11.2 7.33331 16 7.33331C18.0667 7.33331 19.9334 8.06665 21.4 9.26665L25.6667 4.99998C23.0667 2.73331 19.7334 1.33331 16 1.33331C7.86671 1.33331 1.33337 7.86665 1.33337 16C1.33337 24.1333 7.86671 30.6666 16 30.6666C23.3334 30.6666 30 25.3333 30 16C30 15.1333 29.8667 14.2 29.6667 13.3333Z" fill="white"/>
</mask>
<g mask="url(#mask3_11_1103)">
<path d="M32.0001 32L11.3334 16L8.66675 14L32.0001 7.33331V32Z" fill="#4285F4"/>
</g>
</svg>
