<svg width="551" height="567" viewBox="0 0 551 567" fill="none" xmlns="http://www.w3.org/2000/svg">
<path d="M155.36 161.824L39.0058 197.461C37.3746 197.827 35.6871 197.868 34.0398 197.583C32.3925 197.298 30.8178 196.693 29.4059 195.801C27.9939 194.909 26.7723 193.749 25.8112 192.386C24.85 191.023 24.168 189.485 23.8043 187.86L1.30609 87.3429C0.570283 84.0605 1.17336 80.6214 2.98272 77.7818C4.79207 74.9423 7.65954 72.9348 10.9546 72.2008L130.501 52.6052C134.754 51.9083 139.113 52.859 142.685 55.2622C146.257 57.6655 148.77 61.3391 149.708 65.5294L166.868 142.13C167.786 146.253 167.111 150.569 164.979 154.218C162.846 157.868 159.412 160.583 155.36 161.824V161.824Z" stroke="#A1A1A1" stroke-width="1.37431" stroke-miterlimit="10" stroke-linecap="round"/>
<path d="M194.347 390.995C178.582 363.178 150.531 305.247 143.064 234.15" stroke="#A1A1A1" stroke-width="1.37431" stroke-miterlimit="10" stroke-linecap="round"/>
<path d="M404.619 366.545C411.478 346.317 417.451 322.9 418.354 300.873" stroke="#A1A1A1" stroke-width="1.37431" stroke-miterlimit="10" stroke-linecap="round"/>
<path d="M427.251 377.305C427.251 377.305 430.748 344.562 451.064 322.33L474.528 340.376C474.528 340.376 442.891 348.107 427.251 377.305Z" fill="black"/>
<path d="M479.085 396.522C518.552 399.34 548.371 430.726 545.794 466.535C543.217 502.344 509.209 529.173 469.741 526.355C430.274 523.537 400.455 492.151 403.032 456.342C405.609 420.533 439.617 393.704 479.085 396.522Z" stroke="#A1A1A1"/>
<path d="M447.032 232.253C447.032 232.253 461.519 233.144 468.261 225.457C471.712 221.529 480.207 213.236 490.956 208.48C501.704 203.724 489.945 222.954 490.357 224.513C490.893 226.597 510.754 213.085 513.74 217.342C516.727 221.6 519.919 233.153 506.479 244.75C493.039 256.347 450.86 273.056 439.11 271.694C427.36 270.331 432.072 243.235 447.032 232.253Z" fill="#F3ABAA"/>
<path d="M488.451 225.733L480.448 233.259" stroke="#0D0F44" stroke-width="0.916209" stroke-miterlimit="10" stroke-linecap="round"/>
<path d="M146.239 141.383C146.239 141.383 143.163 134.969 142.662 123.176C142.198 111.945 139.425 90.8347 132.603 90.8347C129.375 90.8347 122.525 93.6761 123.088 113.771C123.088 113.771 121.568 121.921 107.493 106.752C93.4186 91.5829 87.8835 92.5538 83.7165 95.7514C76.3303 101.434 64.3033 116.042 74.3899 137.267C84.4765 158.493 118.34 175.568 118.34 175.568L146.239 141.383Z" fill="#F3ABAA"/>
<path d="M84.1368 99.4657C84.1368 99.4657 94.6527 112.158 100.626 115.498" stroke="black" stroke-width="0.916209" stroke-miterlimit="10" stroke-linecap="round"/>
<path d="M79.7461 107.491C79.7461 107.491 90.253 120.183 96.2352 123.524" stroke="black" stroke-width="0.916209" stroke-miterlimit="10" stroke-linecap="round"/>
<path d="M75.8916 117.057C75.8916 117.057 86.3985 129.732 92.3808 133.09" stroke="black" stroke-width="0.916209" stroke-miterlimit="10" stroke-linecap="round"/>
<path d="M75.8916 129.322C79.1952 133.274 82.7022 137.053 86.3985 140.643" stroke="black" stroke-width="0.916209" stroke-miterlimit="10" stroke-linecap="round"/>
<path d="M167.448 440.385L265.238 371.15C268.253 369.015 271.706 367.574 275.348 366.93C278.989 366.286 282.729 366.456 286.297 367.427L438.312 408.64C440.935 409.348 443.327 410.729 445.246 412.646C447.165 414.563 448.546 416.948 449.249 419.563C449.953 422.179 449.954 424.932 449.254 427.548C448.554 430.164 447.177 432.551 445.26 434.471L320.894 559.571C316.759 563.742 311.215 566.234 305.339 566.564C299.464 566.893 293.674 565.036 289.096 561.352L166.724 462.546C165.052 461.191 163.718 459.47 162.824 457.517C161.931 455.564 161.502 453.432 161.572 451.287C161.642 449.141 162.209 447.041 163.228 445.15C164.248 443.259 165.692 441.628 167.448 440.385Z" fill="#101010"/>
<path d="M449.122 406.297L449.784 426.071L440.073 434.31L449.122 406.297Z" fill="#101010"/>
<path d="M161.573 438.844V453.692L176.524 461.468L161.573 438.844Z" fill="#101010"/>
<path d="M167.45 427.523L265.24 358.279C268.255 356.144 271.708 354.703 275.35 354.059C278.991 353.416 282.731 353.585 286.299 354.556L438.314 395.769C440.938 396.477 443.329 397.858 445.248 399.775C447.167 401.692 448.548 404.077 449.251 406.692C449.955 409.308 449.956 412.061 449.256 414.677C448.556 417.293 447.179 419.68 445.262 421.6L320.896 546.7C316.755 550.865 311.209 553.349 305.333 553.67C299.457 553.991 293.671 552.126 289.098 548.437L166.726 449.675C165.056 448.32 163.723 446.6 162.83 444.647C161.938 442.695 161.51 440.564 161.58 438.42C161.65 436.276 162.216 434.177 163.235 432.287C164.253 430.397 165.695 428.766 167.45 427.523Z" fill="#A1A1A1"/>
<path d="M421.027 424.281L376.317 469.235L374.832 463C372.552 452.926 365.434 420.932 359.228 387.459L415.17 402.601C417.374 403.192 419.384 404.349 420.998 405.956C422.612 407.564 423.773 409.565 424.366 411.761C424.959 413.956 424.963 416.268 424.377 418.466C423.791 420.663 422.636 422.668 421.027 424.281Z" fill="#DADEEB"/>
<path d="M246.156 492.679L248.991 497.613L187.335 447.849C185.934 446.713 184.815 445.27 184.066 443.632C183.318 441.994 182.959 440.205 183.019 438.407C183.079 436.608 183.555 434.847 184.411 433.262C185.267 431.677 186.479 430.31 187.952 429.269L216.781 408.863C223.403 437.805 233.256 465.919 246.156 492.679Z" fill="#DADEEB"/>
<path d="M312.445 15.4093C312.445 15.4093 340.451 10.7153 345.754 62.2518C349.823 101.799 353.596 107.954 354.759 111.642C355.921 115.329 380.932 143.404 373.76 172.691C373.76 172.691 362.601 210.101 327.897 216.38C293.193 222.66 289.097 138.336 289.097 138.336C289.097 138.336 284.376 29.1975 312.445 15.4093Z" fill="#101010"/>
<path d="M118.662 366.536C135.572 366.536 149.28 352.882 149.28 336.038C149.28 319.195 135.572 305.54 118.662 305.54C101.752 305.54 88.0443 319.195 88.0443 336.038C88.0443 352.882 101.752 366.536 118.662 366.536Z" fill="black"/>
<path d="M129.519 335.459L117.724 350.601C117.526 350.862 117.26 351.063 116.956 351.183C116.651 351.303 116.319 351.337 115.996 351.282C115.673 351.227 115.372 351.084 115.124 350.87C114.877 350.656 114.694 350.378 114.594 350.067L107.861 329.741C107.756 329.432 107.738 329.1 107.809 328.782C107.881 328.463 108.038 328.17 108.265 327.935C108.492 327.7 108.78 327.531 109.096 327.448C109.413 327.364 109.746 327.369 110.061 327.461L128.58 332.609C128.87 332.684 129.137 332.83 129.356 333.034C129.574 333.239 129.738 333.495 129.832 333.779C129.925 334.062 129.945 334.365 129.891 334.659C129.836 334.953 129.708 335.228 129.519 335.459Z" fill="white"/>
<path d="M376.336 469.235L316.675 529.251C313.201 532.745 308.548 534.828 303.619 535.096C298.689 535.365 293.836 533.799 290.001 530.703L248.992 497.613L246.158 492.679C233.258 465.919 223.405 437.806 216.783 408.863C203.209 350.584 205.427 305.959 205.427 305.959L348.92 306.155C348.374 323.239 353.391 356.035 359.248 387.459C365.454 420.932 372.572 452.926 374.852 463L376.336 469.235Z" fill="#101010"/>
<path d="M261.037 370.562L273.896 375.461C273.896 375.461 274.28 416.087 321.682 520.264" stroke="#E6E6E6" stroke-width="0.916209" stroke-miterlimit="10" stroke-linecap="round"/>
<path d="M274.074 119.088C274.074 119.088 235.623 121.261 221.316 149.025C203.763 182.872 182.686 178.757 153.258 143.805C152.171 142.51 150.662 141.638 148.994 141.341C147.326 141.045 145.606 141.343 144.137 142.184C133.228 148.419 110.56 164.122 121.111 181.732C134.793 204.552 176.176 252.249 211.426 249.524C211.426 249.524 205.104 289.267 205.497 305.959C205.497 305.959 227.182 333.25 281.183 332.075C335.184 330.899 348.99 306.155 348.99 306.155C348.99 306.155 349.581 265.316 351.36 254.716C351.36 254.716 386.896 281.18 439.18 271.711C439.18 271.711 432.205 247.724 447.103 232.253C447.103 232.253 395.444 218.046 389.748 210.154C384.052 202.263 368.35 158.306 365.238 151.733C361.17 143.119 349.142 128.681 326.018 121.733C302.894 114.786 274.074 119.088 274.074 119.088Z" fill="black"/>
<path d="M229.722 154.511C229.722 154.511 217.847 188.501 211.963 243.538" stroke="#F4F4F4" stroke-width="0.916209" stroke-miterlimit="10" stroke-linecap="round"/>
<path d="M313.928 175.559C313.928 175.559 324.226 209.887 331.499 229.833C333.865 236.323 335.911 241.29 337.178 243.057C342.337 250.254 351.279 254.717 351.279 254.717" stroke="white" stroke-width="0.916209" stroke-miterlimit="10" stroke-linecap="round"/>
<path d="M437.473 229.5C437.473 229.5 422.138 237.428 428.746 269.19" stroke="white" stroke-width="0.916209" stroke-miterlimit="10" stroke-linecap="round"/>
<path d="M157.309 148.517C157.309 148.517 138.111 158.03 128.82 175.559" stroke="#F4F4F4" stroke-width="0.916209" stroke-miterlimit="10" stroke-linecap="round"/>
<path d="M264.14 24.8419C264.14 24.8419 247.4 32.413 259.239 59.3391L274.038 33.3304L264.14 24.8419Z" fill="#101010"/>
<path d="M318.079 77.7591C318.079 77.7591 309.512 121.101 309.512 124.619C309.512 128.138 285.995 133.696 272.778 122.838C272.778 122.838 282.614 94.5044 284.349 87.4144C286.084 80.3243 305.783 72.4683 318.079 77.7591Z" fill="#F3ABAA"/>
<path d="M318.078 77.759L282.095 95.0299C280.834 98.9847 279.278 103.697 277.758 108.15C277.758 108.15 309.494 113.147 318.078 77.759Z" fill="#C08D8C"/>
<path d="M322.826 60.8622C322.826 79.3978 308.572 99.4566 290.983 99.4566C269.576 99.4566 257.808 86.8175 259.132 60.8622C260.08 42.4512 273.394 27.318 290.983 27.318C308.572 27.318 322.826 42.3354 322.826 60.8622Z" fill="#F3ABAA"/>
<path d="M308.045 61.5659C289.097 63.3919 264.041 48.7931 264.14 24.8419C264.238 0.89071 286.28 0 289.616 0C292.951 0 322.093 4.38229 331.026 33.4016C339.96 62.421 315.986 60.7999 308.045 61.5659Z" fill="#101010"/>
<path d="M325.031 75.2806C331.754 71.4141 335.281 64.9607 332.908 60.8667C330.535 56.7726 323.161 56.5882 316.438 60.4547C309.714 64.3212 306.188 70.7746 308.561 74.8686C310.934 78.9627 318.308 79.1471 325.031 75.2806Z" fill="#F3ABAA"/>
<path d="M290.483 86.6395C290.483 86.6395 297.825 87.5747 300.82 81.1705" stroke="black" stroke-width="0.916209" stroke-miterlimit="10" stroke-linecap="round"/>
<path d="M318.042 69.3418L328.039 65.0397" stroke="black" stroke-width="0.916209" stroke-miterlimit="10" stroke-linecap="round"/>
<path d="M276.488 64.7456L274.422 73.5191C274.363 73.7737 274.356 74.0378 274.404 74.2949C274.452 74.552 274.552 74.7965 274.699 75.0131C274.846 75.2297 275.036 75.4137 275.258 75.5536C275.48 75.6935 275.728 75.7863 275.987 75.826L278.107 76.1645" stroke="black" stroke-width="0.916209" stroke-miterlimit="10" stroke-linecap="round"/>
<path d="M270.691 60.6621C270.997 58.1223 270.18 55.9361 268.866 55.7791C267.552 55.6221 266.238 57.5537 265.932 60.0935C265.627 62.6334 266.444 64.8195 267.758 64.9766C269.072 65.1336 270.385 63.202 270.691 60.6621Z" fill="black"/>
<path d="M289.101 63.8147C289.406 61.2749 288.589 59.0887 287.275 58.9317C285.961 58.7747 284.648 60.7063 284.342 63.2461C284.036 65.7859 284.853 67.9721 286.167 68.1291C287.481 68.2862 288.795 66.3545 289.101 63.8147Z" fill="black"/>
</svg>
